<?xml version="1.0" encoding="UTF-8"?>
<!DOCTYPE svg PUBLIC "-//W3C//DTD SVG 1.1//EN" "http://www.w3.org/Graphics/SVG/1.1/DTD/svg11.dtd">
<svg xmlns="http://www.w3.org/2000/svg" version="1.1" width="512px" height="512px" style="shape-rendering:geometricPrecision; text-rendering:geometricPrecision; image-rendering:optimizeQuality; fill-rule:evenodd; clip-rule:evenodd" xmlns:xlink="http://www.w3.org/1999/xlink">
<g><path style="opacity:0.977" fill="#010101" d="M 129.5,-0.5 C 133.833,-0.5 138.167,-0.5 142.5,-0.5C 153.346,9.08837 166.013,15.255 180.5,18C 190.465,19.638 200.465,20.9713 210.5,22C 215.333,24.1667 218.833,27.6667 221,32.5C 221.667,56.8333 221.667,81.1667 221,105.5C 219.873,116.301 218.039,126.968 215.5,137.5C 240.954,132.89 265.288,136.223 288.5,147.5C 289.333,118.172 289.833,88.839 290,59.5C 293.833,46.3333 302.333,37.8333 315.5,34C 326.495,33.5002 337.495,33.3335 348.5,33.5C 346.622,17.229 352.956,5.89566 367.5,-0.5C 389.5,-0.5 411.5,-0.5 433.5,-0.5C 448.055,5.92022 454.389,17.2536 452.5,33.5C 463.505,33.3335 474.505,33.5002 485.5,34C 498.691,38.0255 507.358,46.5255 511.5,59.5C 511.5,104.833 511.5,150.167 511.5,195.5C 507.358,208.474 498.691,216.974 485.5,221C 439.167,221.333 392.833,221.667 346.5,222C 355.675,269.484 341.341,308.151 303.5,338C 298.423,341.401 293.089,344.401 287.5,347C 299.42,359.512 302.753,374.012 297.5,390.5C 301.122,391.659 304.789,391.825 308.5,391C 361.5,373.333 414.5,355.667 467.5,338C 488.944,332.554 503.611,340.054 511.5,360.5C 511.5,365.833 511.5,371.167 511.5,376.5C 508.668,385.179 503.335,392.012 495.5,397C 443.5,428.667 391.5,460.333 339.5,492C 330.033,498.045 319.7,501.712 308.5,503C 234.5,503.333 160.5,503.667 86.5,504C 83.0826,507.614 79.0826,510.114 74.5,511.5C 55.5,511.5 36.5,511.5 17.5,511.5C 9.16667,507.833 3.16667,501.833 -0.5,493.5C -0.5,428.833 -0.5,364.167 -0.5,299.5C 2.86383,289.308 9.86383,283.141 20.5,281C 37.8333,280.333 55.1667,280.333 72.5,281C 79.9563,282.472 85.7897,286.305 90,292.5C 91.0086,294.025 91.5086,295.692 91.5,297.5C 108.906,296.113 125.739,298.446 142,304.5C 127.758,278.045 123.592,250.045 129.5,220.5C 101.647,209.821 80.8136,191.154 67,164.5C 53.28,133.972 47.78,101.972 50.5,68.5C 50.6667,56.5 50.8333,44.5 51,32.5C 53.1667,27.6667 56.6667,24.1667 61.5,22C 76.4842,21.0582 91.1508,18.3916 105.5,14C 114.362,10.4106 122.362,5.57725 129.5,-0.5 Z M 371.5,17.5 C 390.836,17.3334 410.17,17.5 429.5,18C 431.815,19.1094 433.315,20.9427 434,23.5C 434.498,26.8168 434.665,30.1501 434.5,33.5C 411.833,33.5 389.167,33.5 366.5,33.5C 365.441,27.2005 367.107,21.8672 371.5,17.5 Z"/></g>
<g><path style="opacity:1" fill="#5fa716" d="M 187.5,37.5 C 187.667,57.8361 187.5,78.1694 187,98.5C 185.984,117.112 181.817,134.946 174.5,152C 152.688,161.143 135.855,175.976 124,196.5C 123.329,197.252 122.496,197.586 121.5,197.5C 94.7325,181.195 78.2325,157.528 72,126.5C 70.6268,119.554 69.6268,112.554 69,105.5C 67.6459,83.1909 67.1459,60.8576 67.5,38.5C 87.8758,37.7394 107.209,32.906 125.5,24C 129.088,21.6227 132.588,19.1227 136,16.5C 151.27,28.0487 168.437,35.0487 187.5,37.5 Z"/></g>
<g><path style="opacity:1" fill="#529213" d="M 187.5,37.5 C 193.145,38.1342 198.811,38.4676 204.5,38.5C 204.667,59.1694 204.5,79.836 204,100.5C 202.542,115.997 199.042,130.997 193.5,145.5C 167.082,157.584 148.082,176.917 136.5,203.5C 135.635,204.583 134.635,204.749 133.5,204C 129.278,202.059 125.278,199.892 121.5,197.5C 122.496,197.586 123.329,197.252 124,196.5C 135.855,175.976 152.688,161.143 174.5,152C 181.817,134.946 185.984,117.112 187,98.5C 187.5,78.1694 187.667,57.8361 187.5,37.5 Z"/></g>
<g><path style="opacity:1" fill="#5fa716" d="M 319.5,51.5 C 370.168,51.3333 420.834,51.5 471.5,52C 474.667,55.155 476.501,58.9883 477,63.5C 477.667,106.5 477.667,149.5 477,192.5C 475.819,196.363 473.986,199.863 471.5,203C 427.835,203.5 384.168,203.667 340.5,203.5C 332.878,186.549 321.878,172.215 307.5,160.5C 306.333,128.172 306.167,95.8385 307,63.5C 309.088,57.2434 313.255,53.2434 319.5,51.5 Z"/></g>
<g><path style="opacity:1" fill="#529113" d="M 319.5,51.5 C 373.332,50.3349 427.332,50.1682 481.5,51C 487.693,53.1926 491.859,57.3593 494,63.5C 494.667,106.167 494.667,148.833 494,191.5C 491.859,197.641 487.693,201.807 481.5,204C 434.332,204.832 387.332,204.665 340.5,203.5C 384.168,203.667 427.835,203.5 471.5,203C 473.986,199.863 475.819,196.363 477,192.5C 477.667,149.5 477.667,106.5 477,63.5C 476.501,58.9883 474.667,55.155 471.5,52C 420.834,51.5 370.168,51.3333 319.5,51.5 Z"/></g>
<g><path style="opacity:1" fill="#020300" d="M 166.5,59.5 C 177.757,59.3437 180.923,64.3437 176,74.5C 160,95.8333 144,117.167 128,138.5C 125.044,143.231 120.878,145.064 115.5,144C 107.294,137.462 100.128,129.962 94,121.5C 93.3333,119.5 93.3333,117.5 94,115.5C 95.5,114 97,112.5 98.5,111C 100.5,110.333 102.5,110.333 104.5,111C 108.8,114.298 112.8,117.965 116.5,122C 117.167,122.667 117.833,122.667 118.5,122C 134.399,101.008 150.399,80.1746 166.5,59.5 Z"/></g>
<g><path style="opacity:1" fill="#020301" d="M 392.5,67.5 C 424.597,66.4635 446.43,80.7968 458,110.5C 464.276,138.682 455.776,161.182 432.5,178C 401.477,194.262 374.644,189.095 352,162.5C 335.777,137.08 336.777,112.414 355,88.5C 365.448,77.696 377.948,70.696 392.5,67.5 Z"/></g>
<g><path style="opacity:1" fill="#f0f0f0" d="M 394.5,84.5 C 426.217,85.0509 442.384,101.051 443,132.5C 436.293,160.861 418.46,173.028 389.5,169C 367.135,161.119 356.635,145.286 358,121.5C 362.351,101.316 374.518,88.9829 394.5,84.5 Z"/></g>
<g><path style="opacity:1" fill="#040404" d="M 392.5,146.5 C 392.5,142.833 392.5,139.167 392.5,135.5C 388.833,135.5 385.167,135.5 381.5,135.5C 375.873,133.412 374.039,129.412 376,123.5C 377.451,121.536 379.284,120.203 381.5,119.5C 385.167,119.5 388.833,119.5 392.5,119.5C 392.5,115.833 392.5,112.167 392.5,108.5C 395.442,102.354 400.109,100.854 406.5,104C 409.198,108.773 410.198,113.939 409.5,119.5C 413.514,119.334 417.514,119.501 421.5,120C 428.167,125 428.167,130 421.5,135C 417.514,135.499 413.514,135.666 409.5,135.5C 410.198,141.061 409.198,146.227 406.5,151C 400.109,154.146 395.442,152.646 392.5,146.5 Z"/></g>
<g><path style="opacity:1" fill="#777777" d="M 392.5,108.5 C 392.5,112.167 392.5,115.833 392.5,119.5C 388.833,119.5 385.167,119.5 381.5,119.5C 384.625,118.521 387.958,118.187 391.5,118.5C 391.187,114.958 391.521,111.625 392.5,108.5 Z"/></g>
<g><path style="opacity:1" fill="#7f7f7f" d="M 381.5,135.5 C 385.167,135.5 388.833,135.5 392.5,135.5C 392.5,139.167 392.5,142.833 392.5,146.5C 391.521,143.375 391.187,140.042 391.5,136.5C 387.958,136.813 384.625,136.479 381.5,135.5 Z"/></g>
<g><path style="opacity:1" fill="#fdda00" d="M 260.5,155.5 C 305.93,183.713 322.763,224.046 311,276.5C 303.651,300.509 289.484,319.342 268.5,333C 266.527,333.495 264.527,333.662 262.5,333.5C 213.888,346.704 177.722,331.704 154,288.5C 135.261,242.96 144.428,204.127 181.5,172C 205.285,154.676 231.618,149.176 260.5,155.5 Z"/></g>
<g><path style="opacity:1" fill="#f9bd07" d="M 260.5,155.5 C 305.53,169.372 329.53,199.872 332.5,247C 331.127,283.102 315.127,310.435 284.5,329C 279.362,331.657 274.028,333.824 268.5,335.5C 266.283,335.122 264.283,334.455 262.5,333.5C 264.527,333.662 266.527,333.495 268.5,333C 289.484,319.342 303.651,300.509 311,276.5C 322.763,224.046 305.93,183.713 260.5,155.5 Z"/></g>
<g><path style="opacity:1" fill="#040300" d="M 235.5,178.5 C 243.01,178.077 247.01,181.577 247.5,189C 265.884,194.942 273.717,207.442 271,226.5C 260.353,232.166 255.02,228.832 255,216.5C 250.654,206.743 243.154,202.909 232.5,205C 220.185,212.398 218.185,222.065 226.5,234C 228.67,235.586 231.004,236.92 233.5,238C 250.457,237.384 262.623,244.55 270,259.5C 276.192,281.616 268.692,296.782 247.5,305C 245.804,314.345 240.804,317.012 232.5,313C 230.887,310.772 230.22,308.272 230.5,305.5C 212.888,300.042 204.388,288.042 205,269.5C 207.541,264.931 211.375,263.431 216.5,265C 218.552,265.93 220.052,267.43 221,269.5C 220.669,281.489 226.335,288.156 238,289.5C 246.493,289.426 252.16,285.426 255,277.5C 255.959,261.179 248.125,253.679 231.5,255C 211.222,248.634 202.389,234.801 205,213.5C 208.757,200.242 217.257,191.908 230.5,188.5C 230.075,184.017 231.741,180.683 235.5,178.5 Z"/></g>
<g><path style="opacity:1" fill="#02a8f3" d="M 57.5,298.5 C 57.7086,299.922 58.2086,301.255 59,302.5C 59.6667,364.833 59.6667,427.167 59,489.5C 58.3923,491.154 57.8923,492.821 57.5,494.5C 45.4954,494.667 33.4954,494.5 21.5,494C 19.6217,492.457 18.1217,490.624 17,488.5C 16.3333,426.833 16.3333,365.167 17,303.5C 17.8333,301.333 19.3333,299.833 21.5,299C 33.4954,298.5 45.4954,298.333 57.5,298.5 Z"/></g>
<g><path style="opacity:1" fill="#0275b9" d="M 57.5,298.5 C 62.1785,298.334 66.8452,298.501 71.5,299C 73.5524,299.93 75.0524,301.43 76,303.5C 76.6667,365.167 76.6667,426.833 76,488.5C 74.8333,491 73,492.833 70.5,494C 66.1794,494.499 61.8461,494.666 57.5,494.5C 57.8923,492.821 58.3923,491.154 59,489.5C 59.6667,427.167 59.6667,364.833 59,302.5C 58.2086,301.255 57.7086,299.922 57.5,298.5 Z"/></g>
<g><path style="opacity:1" fill="#fedfb1" d="M 471.5,355.5 C 472.496,355.414 473.329,355.748 474,356.5C 479.919,368.023 478.086,378.19 468.5,387C 415.102,419.024 362.102,451.524 309.5,484.5C 237.669,485.499 165.669,485.833 93.5,485.5C 93.5,428.833 93.5,372.167 93.5,315.5C 108.272,314.209 122.605,316.043 136.5,321C 146.767,326.938 156.767,333.272 166.5,340C 175.95,344.816 185.95,347.816 196.5,349C 216.5,349.333 236.5,349.667 256.5,350C 274.5,353.641 283,364.474 282,382.5C 280.973,385.754 279.473,388.754 277.5,391.5C 256.174,392.333 234.841,392.833 213.5,393C 197.412,395.961 183.246,402.795 171,413.5C 169.059,420.393 171.559,424.726 178.5,426.5C 186.13,422.35 193.796,418.184 201.5,414C 205.773,412.465 210.106,411.131 214.5,410C 247.534,409.957 280.534,409.29 313.5,408C 366.045,390.233 418.711,372.733 471.5,355.5 Z"/></g>
<g><path style="opacity:1" fill="#d9bf98" d="M 309.5,484.5 C 362.102,451.524 415.102,419.024 468.5,387C 478.086,378.19 479.919,368.023 474,356.5C 473.329,355.748 472.496,355.414 471.5,355.5C 480.21,351.803 487.377,353.803 493,361.5C 495.842,369.308 494.009,375.808 487.5,381C 432,414.918 376.333,448.585 320.5,482C 316.93,483.31 313.263,484.143 309.5,484.5 Z"/></g>
</svg>
