<!-- Uploaded to: SVGRepo, www.svgrepo.com, Transformed by: SVGRepo Tools -->
<svg width="800px" height="800px" viewBox="-21.66 0 92.59916 92.59916" xmlns="http://www.w3.org/2000/svg"><title>Asset 7</title><g id="Layer_2" data-name="Layer 2"><g id="Layer_27" data-name="Layer 27"><g id="Carry-On_Suitcase_Icon" data-name="Carry-On Suitcase Icon"><g id="Wheels"><path id="Right_Wheel" data-name="Right Wheel" d="M34.15615,83.63113a2.4937,2.4937,0,1,1,4.9874,0v6.47433a2.4937,2.4937,0,1,1-4.9874,0Z" style="fill:#83ebc5"/><path id="Left_Wheel" data-name="Left Wheel" d="M9.9748,83.63113a2.4937,2.4937,0,1,1,4.9874,0v6.47433a2.4937,2.4937,0,0,1-4.9874,0Z" style="fill:#83ebc5"/></g><g id="Handle"><rect id="Right_Handle" data-name="Right Handle" x="30.38183" y="4.52917" width="3.19582" height="18.99789" style="fill:#c4c4c4"/><rect id="Left_Handle" data-name="Left Handle" x="15.49119" y="4.67519" width="3.19582" height="18.99789" style="fill:#c4c4c4"/><path id="Top_Handle" data-name="Top Handle" d="M13.602,2.33759A2.33759,2.33759,0,0,1,15.93961,0h17.088a2.3376,2.3376,0,0,1,0,4.67519h-17.088A2.33759,2.33759,0,0,1,13.602,2.33759Z" style="fill:#ff7878"/></g><g id="Suitcase_Body" data-name="Suitcase Body"><path id="Body" d="M0,31.37765a7.85057,7.85057,0,0,1,7.85059-7.85058H41.41887a7.85064,7.85064,0,0,1,7.85063,7.85058v47.64a7.8507,7.8507,0,0,1-7.85063,7.85062H7.85059A7.85064,7.85064,0,0,1,0,79.01762Z" style="fill:#ff7878"/><g id="Suitcase_Stripes" data-name="Suitcase Stripes"><path id="Stripe" d="M2.41805,30.466a2.41556,2.41556,0,0,1,2.41557-2.41557H7.71029A2.41556,2.41556,0,0,1,10.12586,30.466V79.77641A2.41557,2.41557,0,0,1,7.71029,82.192H4.83362a2.41557,2.41557,0,0,1-2.41557-2.4156Z" style="fill:#e36666"/><path id="Stripe-2" data-name="Stripe" d="M11.63728,30.466a2.41557,2.41557,0,0,1,2.41557-2.41557h2.87667A2.41556,2.41556,0,0,1,19.34509,30.466V79.77641a2.41557,2.41557,0,0,1-2.41557,2.4156H14.05285a2.41557,2.41557,0,0,1-2.41557-2.4156Z" style="fill:#e36666"/><path id="Stripe-3" data-name="Stripe" d="M20.85641,30.466A2.41556,2.41556,0,0,1,23.272,28.05043h2.87667A2.41556,2.41556,0,0,1,28.56422,30.466V79.77641a2.41557,2.41557,0,0,1-2.41557,2.4156H23.272a2.41557,2.41557,0,0,1-2.41557-2.4156Z" style="fill:#e36666"/><path id="Stripe-4" data-name="Stripe" d="M30.07555,30.466a2.41557,2.41557,0,0,1,2.41557-2.41557H35.3678A2.41556,2.41556,0,0,1,37.78336,30.466V79.77641A2.41556,2.41556,0,0,1,35.3678,82.192H32.49112a2.41557,2.41557,0,0,1-2.41557-2.4156Z" style="fill:#e36666"/><path id="Stripe-5" data-name="Stripe" d="M39.2947,30.466a2.41556,2.41556,0,0,1,2.41556-2.41557h2.87668A2.41557,2.41557,0,0,1,47.00251,30.466V79.77641a2.41557,2.41557,0,0,1-2.41557,2.4156H41.71026a2.41556,2.41556,0,0,1-2.41556-2.4156Z" style="fill:#e36666"/></g></g><g id="Stamps"><path id="Grey_Stamp" data-name="Grey Stamp" d="M5.31254,44.75214a2.41317,2.41317,0,0,1,1.89227-2.84247l2.82006-.56474a2.41794,2.41794,0,0,1,2.84479,1.89383l.59381,2.95262a2.41316,2.41316,0,0,1-1.89226,2.84247l-2.82.56475a2.418,2.418,0,0,1-2.84481-1.89383Z" style="fill:#c4c4c4"/><path id="Green_Stamp" data-name="Green Stamp" d="M13.0915,52.05305a2.41937,2.41937,0,0,1,3.06825-1.507l5.08262,1.73073a2.41177,2.41177,0,0,1,1.505,3.06426l-.97488,2.85076a2.41935,2.41935,0,0,1-3.06824,1.507l-5.08262-1.73073a2.41177,2.41177,0,0,1-1.505-3.06426Z" style="fill:#83ebc5"/><path id="Green_Stamp-2" data-name="Green Stamp" d="M4.69677,64.34711A2.41251,2.41251,0,0,1,6.417,61.39775l5.19387-1.3643a2.41863,2.41863,0,0,1,2.95245,1.722l.76831,2.91255a2.41251,2.41251,0,0,1-1.72018,2.94936l-5.19387,1.3643a2.41863,2.41863,0,0,1-2.95245-1.722Z" style="fill:#83ebc5"/></g><g id="Plane_Stamp" data-name="Plane Stamp"><path id="Plane_Stamp-2" data-name="Plane Stamp" d="M41.67352,43.61812a6.94973,6.94973,0,1,1-3.55438-9.14735A6.958,6.958,0,0,1,41.67352,43.61812Z" style="fill:#fff8c9"/><path id="Plane" d="M39.092,37.52426a.68118.68118,0,0,0-1.13623-.33327l-1.87885,1.81542-3.54387-.9502a.51359.51359,0,0,0-.60108.285l-.0088.01947a.51414.51414,0,0,0,.22.66158l2.49274,1.37657-1.58607,1.5325a.74363.74363,0,0,0-.04556.06642l-.94465-.2485a.43232.43232,0,0,0-.31348.79981l1.26864.66308.623,1.19357a.42934.42934,0,0,0,.571.1863.43471.43471,0,0,0,.22823-.49994l-.26451-1.00691c.00576-.00565.01361-.00736.01921-.01323l1.53437-1.59583,1.39262,2.52528a.51357.51357,0,0,0,.66116.22012l.01947-.00886a.514.514,0,0,0,.28478-.60145l-.96082-3.58831L38.92,38.15415A.68221.68221,0,0,0,39.092,37.52426Z" style="fill:#ff7878"/></g></g></g></g></svg>